<svg xmlns="http://www.w3.org/2000/svg" viewBox="0 0 32 32">
  <defs>
    <linearGradient id="copper" x1="0%" y1="0%" x2="100%" y2="100%">
      <stop offset="0%" stop-color="#E8C4A0"/>
      <stop offset="30%" stop-color="#D4915C"/>
      <stop offset="70%" stop-color="#B87333"/>
      <stop offset="100%" stop-color="#8B5A2B"/>
    </linearGradient>
    <linearGradient id="shine" x1="0%" y1="0%" x2="100%" y2="0%">
      <stop offset="0%" stop-color="#F5DCC4" stop-opacity="0.9"/>
      <stop offset="50%" stop-color="#D4915C" stop-opacity="0.4"/>
      <stop offset="100%" stop-color="#B87333" stop-opacity="0.9"/>
    </linearGradient>
    <filter id="glow" x="-20%" y="-20%" width="140%" height="140%">
      <feGaussianBlur stdDeviation="0.5" result="blur"/>
      <feComposite in="SourceGraphic" in2="blur" operator="over"/>
    </filter>
  </defs>

  <!-- Background with subtle rounded corners -->
  <rect width="32" height="32" rx="6" fill="#1A1A1A"/>

  <!-- Left C -->
  <path d="M11 8C7.686 8 5 10.686 5 14v4c0 3.314 2.686 6 6 6h2v-2.5h-2c-1.933 0-3.5-1.567-3.5-3.5v-4c0-1.933 1.567-3.5 3.5-3.5h2V8h-2z"
        fill="url(#copper)" filter="url(#glow)"/>

  <!-- Right C -->
  <path d="M21 8h-2v2.5h2c1.933 0 3.5 1.567 3.5 3.5v4c0 1.933-1.567 3.5-3.5 3.5h-2V24h2c3.314 0 6-2.686 6-6v-4c0-3.314-2.686-6-6-6z"
        fill="url(#copper)" filter="url(#glow)"/>

  <!-- Center connector (card/diamond shape) -->
  <rect x="13" y="14" width="6" height="4" rx="1" fill="url(#shine)"/>

  <!-- Inner highlight for depth -->
  <rect x="14" y="15" width="4" height="2" rx="0.5" fill="white" fill-opacity="0.25"/>
</svg>
